<svg xmlns="http://www.w3.org/2000/svg" viewBox="0 0 100 100" width="500" height="500" class="illustration"><defs><style>.cls-1{fill:#231f20;}.cls-1,.cls-3,.cls-4,.cls-5,.cls-6{stroke:#231f20;stroke-miterlimit:10;stroke-width:1.5px;}.cls-2,.cls-3{fill:#0099f5;}.cls-4{fill:#ff9515;}.cls-5{fill:#fff;}.cls-6{fill:#ffd44d;}</style></defs><g id="Layer_2" data-name="Layer 2"><rect class="cls-1" x="33.48" y="17.39" width="39.2" height="13.36" rx="3.23"></rect><rect class="cls-2" x="25.7" y="17.39" width="39.2" height="13.36" rx="3.23"></rect><path class="cls-3" d="M32.7,17.39h29a3.23,3.23,0,0,1,3.23,3.23v6.91a3.23,3.23,0,0,1-3.23,3.23H28.92a3.23,3.23,0,0,1-3.22-3.23V22.77"></path><path class="cls-4" d="M81.08,46H57.46l-5.34-5a5.07,5.07,0,0,0-3.49-1.38H34V82.61H81.53a3.86,3.86,0,0,0,3.86-3.86V50.28A4.31,4.31,0,0,0,81.08,46Z"></path><rect class="cls-1" x="33.48" y="34.49" width="39.2" height="13.36" rx="3.23"></rect><rect class="cls-3" x="25.7" y="34.49" width="39.2" height="13.36" rx="3.23"></rect><path class="cls-5" d="M45.51,41.18h.6a1.45,1.45,0,0,1,1.45,1.45v5.23a0,0,0,0,1,0,0h-3.5a0,0,0,0,1,0,0V42.63A1.45,1.45,0,0,1,45.51,41.18Z"></path><path class="cls-5" d="M51.45,41.18h.6a1.45,1.45,0,0,1,1.45,1.45v5.23a0,0,0,0,1,0,0H50a0,0,0,0,1,0,0V42.63A1.45,1.45,0,0,1,51.45,41.18Z"></path><path class="cls-5" d="M57.39,41.18H58a1.45,1.45,0,0,1,1.45,1.45v5.23a0,0,0,0,1,0,0h-3.5a0,0,0,0,1,0,0V42.63A1.45,1.45,0,0,1,57.39,41.18Z"></path><path class="cls-5" d="M51.45,24.07h.6a1.45,1.45,0,0,1,1.45,1.45v5.23a0,0,0,0,1,0,0H50a0,0,0,0,1,0,0V25.52A1.45,1.45,0,0,1,51.45,24.07Z"></path><path class="cls-5" d="M57.39,24.07H58a1.45,1.45,0,0,1,1.45,1.45v5.23a0,0,0,0,1,0,0h-3.5a0,0,0,0,1,0,0V25.52A1.45,1.45,0,0,1,57.39,24.07Z"></path><path class="cls-6" d="M75.67,46H54.15A4.59,4.59,0,0,1,51,44.71l-4.15-3.92a4.58,4.58,0,0,0-3.15-1.25h-23a6.13,6.13,0,0,0-6.14,6.14V76.8a5.81,5.81,0,0,0,5.8,5.81H75.67A4.59,4.59,0,0,0,80.26,78V50.56A4.58,4.58,0,0,0,75.67,46Z"></path><line class="cls-5" x1="29.32" y1="21.16" x2="50.7" y2="21.16"></line><line class="cls-5" x1="29.32" y1="24.07" x2="40.01" y2="24.07"></line></g></svg>